# xmcd
#
# Track frame offsets:
#	150
#	17115
#	35008
#	58045
#	76544
#	94920
#	111078
#	126724
#	144042
#	157990
#
# Disc length: 2346 seconds
#
# Revision: 0
# Processed by: cddbd v1.5.2PL0 Copyright (c) Steve Scherf et al.
# Submitted via: EZCDAudioConverter 1.3.4.1
#
DISCID=7b09280a
DTITLE=Amy MacDonald - This Is The Life
DYEAR=2007
DGENRE=Pop
TTITLE0=Mr. Rock and Roll
TTITLE1=This Is The Life
TTITLE2=Poison Prince
TTITLE3=Youth Of Today
TTITLE4=Run
TTITLE5=Let's Start A Band
TTITLE6=Barrowland Ballroom
TTITLE7=L.A.
TTITLE8=A Wish For Something More
TTITLE9=Footballer's  Wife
EXTD=
EXTT0=
EXTT1=
EXTT2=
EXTT3=
EXTT4=
EXTT5=
EXTT6=
EXTT7=
EXTT8=
EXTT9=
PLAYORDER=
